<mxfile host="65bd71144e">
    <diagram name="Page-1" id="vN07K8A9ibH8U_NtdY2e">
        <mxGraphModel dx="1818" dy="829" grid="1" gridSize="10" guides="1" tooltips="1" connect="1" arrows="1" fold="1" page="1" pageScale="1" pageWidth="827" pageHeight="1169" math="0" shadow="0">
            <root>
                <mxCell id="0"/>
                <mxCell id="1" parent="0"/>
                <mxCell id="b3Nxh0a8uUn3oDR11aNZ-6" value="ElectronicClockDecorator" style="swimlane;fontStyle=1;align=center;verticalAlign=top;childLayout=stackLayout;horizontal=1;startSize=26;horizontalStack=0;resizeParent=1;resizeParentMax=0;resizeLast=0;collapsible=1;marginBottom=0;whiteSpace=wrap;html=1;" parent="1" vertex="1">
                    <mxGeometry x="30" y="200" width="250" height="164" as="geometry"/>
                </mxCell>
                <mxCell id="b3Nxh0a8uUn3oDR11aNZ-7" value="+ private s: string" style="text;strokeColor=none;fillColor=none;align=left;verticalAlign=top;spacingLeft=4;spacingRight=4;overflow=hidden;rotatable=0;points=[[0,0.5],[1,0.5]];portConstraint=eastwest;whiteSpace=wrap;html=1;" parent="b3Nxh0a8uUn3oDR11aNZ-6" vertex="1">
                    <mxGeometry y="26" width="250" height="26" as="geometry"/>
                </mxCell>
                <mxCell id="b3Nxh0a8uUn3oDR11aNZ-10" value="+ private rootNode: HTMLElement" style="text;strokeColor=none;fillColor=none;align=left;verticalAlign=top;spacingLeft=4;spacingRight=4;overflow=hidden;rotatable=0;points=[[0,0.5],[1,0.5]];portConstraint=eastwest;whiteSpace=wrap;html=1;" parent="b3Nxh0a8uUn3oDR11aNZ-6" vertex="1">
                    <mxGeometry y="52" width="250" height="26" as="geometry"/>
                </mxCell>
                <mxCell id="b3Nxh0a8uUn3oDR11aNZ-8" value="" style="line;strokeWidth=1;fillColor=none;align=left;verticalAlign=middle;spacingTop=-1;spacingLeft=3;spacingRight=3;rotatable=0;labelPosition=right;points=[];portConstraint=eastwest;strokeColor=inherit;" parent="b3Nxh0a8uUn3oDR11aNZ-6" vertex="1">
                    <mxGeometry y="78" width="250" height="8" as="geometry"/>
                </mxCell>
                <mxCell id="b3Nxh0a8uUn3oDR11aNZ-9" value="+ Display(void): void" style="text;strokeColor=none;fillColor=none;align=left;verticalAlign=top;spacingLeft=4;spacingRight=4;overflow=hidden;rotatable=0;points=[[0,0.5],[1,0.5]];portConstraint=eastwest;whiteSpace=wrap;html=1;" parent="b3Nxh0a8uUn3oDR11aNZ-6" vertex="1">
                    <mxGeometry y="86" width="250" height="26" as="geometry"/>
                </mxCell>
                <mxCell id="b3Nxh0a8uUn3oDR11aNZ-55" value="+ Build(void): void" style="text;strokeColor=none;fillColor=none;align=left;verticalAlign=top;spacingLeft=4;spacingRight=4;overflow=hidden;rotatable=0;points=[[0,0.5],[1,0.5]];portConstraint=eastwest;whiteSpace=wrap;html=1;" parent="b3Nxh0a8uUn3oDR11aNZ-6" vertex="1">
                    <mxGeometry y="112" width="250" height="26" as="geometry"/>
                </mxCell>
                <mxCell id="b3Nxh0a8uUn3oDR11aNZ-53" value="+ getClockModel(void): ClockNodeModel" style="text;strokeColor=none;fillColor=none;align=left;verticalAlign=top;spacingLeft=4;spacingRight=4;overflow=hidden;rotatable=0;points=[[0,0.5],[1,0.5]];portConstraint=eastwest;whiteSpace=wrap;html=1;" parent="b3Nxh0a8uUn3oDR11aNZ-6" vertex="1">
                    <mxGeometry y="138" width="250" height="26" as="geometry"/>
                </mxCell>
                <mxCell id="b3Nxh0a8uUn3oDR11aNZ-19" value="ClockNodeModel" style="swimlane;fontStyle=1;align=center;verticalAlign=top;childLayout=stackLayout;horizontal=1;startSize=26;horizontalStack=0;resizeParent=1;resizeParentMax=0;resizeLast=0;collapsible=1;marginBottom=0;whiteSpace=wrap;html=1;" parent="1" vertex="1">
                    <mxGeometry x="-284" y="120" width="160" height="86" as="geometry"/>
                </mxCell>
                <mxCell id="b3Nxh0a8uUn3oDR11aNZ-20" value="+ field: type" style="text;strokeColor=none;fillColor=none;align=left;verticalAlign=top;spacingLeft=4;spacingRight=4;overflow=hidden;rotatable=0;points=[[0,0.5],[1,0.5]];portConstraint=eastwest;whiteSpace=wrap;html=1;" parent="b3Nxh0a8uUn3oDR11aNZ-19" vertex="1">
                    <mxGeometry y="26" width="160" height="26" as="geometry"/>
                </mxCell>
                <mxCell id="b3Nxh0a8uUn3oDR11aNZ-21" value="" style="line;strokeWidth=1;fillColor=none;align=left;verticalAlign=middle;spacingTop=-1;spacingLeft=3;spacingRight=3;rotatable=0;labelPosition=right;points=[];portConstraint=eastwest;strokeColor=inherit;" parent="b3Nxh0a8uUn3oDR11aNZ-19" vertex="1">
                    <mxGeometry y="52" width="160" height="8" as="geometry"/>
                </mxCell>
                <mxCell id="b3Nxh0a8uUn3oDR11aNZ-22" value="+ method(type): type" style="text;strokeColor=none;fillColor=none;align=left;verticalAlign=top;spacingLeft=4;spacingRight=4;overflow=hidden;rotatable=0;points=[[0,0.5],[1,0.5]];portConstraint=eastwest;whiteSpace=wrap;html=1;" parent="b3Nxh0a8uUn3oDR11aNZ-19" vertex="1">
                    <mxGeometry y="60" width="160" height="26" as="geometry"/>
                </mxCell>
                <mxCell id="b3Nxh0a8uUn3oDR11aNZ-29" style="edgeStyle=orthogonalEdgeStyle;rounded=0;orthogonalLoop=1;jettySize=auto;html=1;endArrow=diamond;endFill=1;entryX=0.025;entryY=0.925;entryDx=0;entryDy=0;entryPerimeter=0;" parent="1" source="b3Nxh0a8uUn3oDR11aNZ-28" target="b3Nxh0a8uUn3oDR11aNZ-7" edge="1">
                    <mxGeometry relative="1" as="geometry">
                        <mxPoint x="70" y="450" as="targetPoint"/>
                    </mxGeometry>
                </mxCell>
                <mxCell id="b3Nxh0a8uUn3oDR11aNZ-30" value="0..*" style="edgeLabel;html=1;align=center;verticalAlign=middle;resizable=0;points=[];" parent="b3Nxh0a8uUn3oDR11aNZ-29" vertex="1" connectable="0">
                    <mxGeometry x="-0.3319" y="1" relative="1" as="geometry">
                        <mxPoint as="offset"/>
                    </mxGeometry>
                </mxCell>
                <mxCell id="b3Nxh0a8uUn3oDR11aNZ-28" value="«View»&lt;div&gt;&lt;br/&gt;&lt;/div&gt;" style="html=1;whiteSpace=wrap;" parent="1" vertex="1">
                    <mxGeometry x="-234" y="310" width="110" height="50" as="geometry"/>
                </mxCell>
                <mxCell id="b3Nxh0a8uUn3oDR11aNZ-31" style="edgeStyle=orthogonalEdgeStyle;rounded=0;orthogonalLoop=1;jettySize=auto;html=1;entryX=0.007;entryY=0.263;entryDx=0;entryDy=0;entryPerimeter=0;endArrow=diamond;endFill=1;" parent="1" source="b3Nxh0a8uUn3oDR11aNZ-21" target="b3Nxh0a8uUn3oDR11aNZ-7" edge="1">
                    <mxGeometry relative="1" as="geometry"/>
                </mxCell>
                <mxCell id="b3Nxh0a8uUn3oDR11aNZ-32" value="1" style="text;html=1;align=center;verticalAlign=middle;resizable=0;points=[];autosize=1;strokeColor=none;fillColor=none;" parent="1" vertex="1">
                    <mxGeometry x="-124" y="158" width="30" height="30" as="geometry"/>
                </mxCell>
                <mxCell id="b3Nxh0a8uUn3oDR11aNZ-33" value="«Controller»&lt;div&gt;&lt;br&gt;&lt;/div&gt;" style="html=1;whiteSpace=wrap;" parent="1" vertex="1">
                    <mxGeometry x="-234" y="400" width="110" height="50" as="geometry"/>
                </mxCell>
                <mxCell id="b3Nxh0a8uUn3oDR11aNZ-34" style="edgeStyle=orthogonalEdgeStyle;rounded=0;orthogonalLoop=1;jettySize=auto;html=1;endArrow=diamond;endFill=1;exitX=1;exitY=0.5;exitDx=0;exitDy=0;" parent="1" source="b3Nxh0a8uUn3oDR11aNZ-33" target="b3Nxh0a8uUn3oDR11aNZ-8" edge="1">
                    <mxGeometry relative="1" as="geometry">
                        <mxPoint x="45" y="260" as="targetPoint"/>
                        <mxPoint x="-169" y="320" as="sourcePoint"/>
                    </mxGeometry>
                </mxCell>
                <mxCell id="b3Nxh0a8uUn3oDR11aNZ-35" value="0..*" style="edgeLabel;html=1;align=center;verticalAlign=middle;resizable=0;points=[];" parent="b3Nxh0a8uUn3oDR11aNZ-34" vertex="1" connectable="0">
                    <mxGeometry x="-0.3319" y="1" relative="1" as="geometry">
                        <mxPoint as="offset"/>
                    </mxGeometry>
                </mxCell>
                <mxCell id="b3Nxh0a8uUn3oDR11aNZ-36" value="MecanicalClockDecorator" style="swimlane;fontStyle=1;align=center;verticalAlign=top;childLayout=stackLayout;horizontal=1;startSize=26;horizontalStack=0;resizeParent=1;resizeParentMax=0;resizeLast=0;collapsible=1;marginBottom=0;whiteSpace=wrap;html=1;" parent="1" vertex="1">
                    <mxGeometry x="614" y="170" width="210" height="164" as="geometry"/>
                </mxCell>
                <mxCell id="b3Nxh0a8uUn3oDR11aNZ-37" value="+ private s: string" style="text;strokeColor=none;fillColor=none;align=left;verticalAlign=top;spacingLeft=4;spacingRight=4;overflow=hidden;rotatable=0;points=[[0,0.5],[1,0.5]];portConstraint=eastwest;whiteSpace=wrap;html=1;" parent="b3Nxh0a8uUn3oDR11aNZ-36" vertex="1">
                    <mxGeometry y="26" width="210" height="26" as="geometry"/>
                </mxCell>
                <mxCell id="b3Nxh0a8uUn3oDR11aNZ-38" value="+ private rootNode: HTMLElement" style="text;strokeColor=none;fillColor=none;align=left;verticalAlign=top;spacingLeft=4;spacingRight=4;overflow=hidden;rotatable=0;points=[[0,0.5],[1,0.5]];portConstraint=eastwest;whiteSpace=wrap;html=1;" parent="b3Nxh0a8uUn3oDR11aNZ-36" vertex="1">
                    <mxGeometry y="52" width="210" height="26" as="geometry"/>
                </mxCell>
                <mxCell id="b3Nxh0a8uUn3oDR11aNZ-39" value="" style="line;strokeWidth=1;fillColor=none;align=left;verticalAlign=middle;spacingTop=-1;spacingLeft=3;spacingRight=3;rotatable=0;labelPosition=right;points=[];portConstraint=eastwest;strokeColor=inherit;" parent="b3Nxh0a8uUn3oDR11aNZ-36" vertex="1">
                    <mxGeometry y="78" width="210" height="8" as="geometry"/>
                </mxCell>
                <mxCell id="b3Nxh0a8uUn3oDR11aNZ-56" value="+ Display(void): void" style="text;strokeColor=none;fillColor=none;align=left;verticalAlign=top;spacingLeft=4;spacingRight=4;overflow=hidden;rotatable=0;points=[[0,0.5],[1,0.5]];portConstraint=eastwest;whiteSpace=wrap;html=1;" parent="b3Nxh0a8uUn3oDR11aNZ-36" vertex="1">
                    <mxGeometry y="86" width="210" height="26" as="geometry"/>
                </mxCell>
                <mxCell id="b3Nxh0a8uUn3oDR11aNZ-57" value="+ Build(void): void" style="text;strokeColor=none;fillColor=none;align=left;verticalAlign=top;spacingLeft=4;spacingRight=4;overflow=hidden;rotatable=0;points=[[0,0.5],[1,0.5]];portConstraint=eastwest;whiteSpace=wrap;html=1;" parent="b3Nxh0a8uUn3oDR11aNZ-36" vertex="1">
                    <mxGeometry y="112" width="210" height="26" as="geometry"/>
                </mxCell>
                <mxCell id="b3Nxh0a8uUn3oDR11aNZ-58" value="+ getClockModel(void): ClockNodeModel" style="text;strokeColor=none;fillColor=none;align=left;verticalAlign=top;spacingLeft=4;spacingRight=4;overflow=hidden;rotatable=0;points=[[0,0.5],[1,0.5]];portConstraint=eastwest;whiteSpace=wrap;html=1;" parent="b3Nxh0a8uUn3oDR11aNZ-36" vertex="1">
                    <mxGeometry y="138" width="210" height="26" as="geometry"/>
                </mxCell>
                <mxCell id="b3Nxh0a8uUn3oDR11aNZ-41" value="ClockNodeModel" style="swimlane;fontStyle=1;align=center;verticalAlign=top;childLayout=stackLayout;horizontal=1;startSize=26;horizontalStack=0;resizeParent=1;resizeParentMax=0;resizeLast=0;collapsible=1;marginBottom=0;whiteSpace=wrap;html=1;" parent="1" vertex="1">
                    <mxGeometry x="300" y="90" width="160" height="86" as="geometry"/>
                </mxCell>
                <mxCell id="b3Nxh0a8uUn3oDR11aNZ-42" value="+ field: type" style="text;strokeColor=none;fillColor=none;align=left;verticalAlign=top;spacingLeft=4;spacingRight=4;overflow=hidden;rotatable=0;points=[[0,0.5],[1,0.5]];portConstraint=eastwest;whiteSpace=wrap;html=1;" parent="b3Nxh0a8uUn3oDR11aNZ-41" vertex="1">
                    <mxGeometry y="26" width="160" height="26" as="geometry"/>
                </mxCell>
                <mxCell id="b3Nxh0a8uUn3oDR11aNZ-43" value="" style="line;strokeWidth=1;fillColor=none;align=left;verticalAlign=middle;spacingTop=-1;spacingLeft=3;spacingRight=3;rotatable=0;labelPosition=right;points=[];portConstraint=eastwest;strokeColor=inherit;" parent="b3Nxh0a8uUn3oDR11aNZ-41" vertex="1">
                    <mxGeometry y="52" width="160" height="8" as="geometry"/>
                </mxCell>
                <mxCell id="b3Nxh0a8uUn3oDR11aNZ-44" value="+ method(type): type" style="text;strokeColor=none;fillColor=none;align=left;verticalAlign=top;spacingLeft=4;spacingRight=4;overflow=hidden;rotatable=0;points=[[0,0.5],[1,0.5]];portConstraint=eastwest;whiteSpace=wrap;html=1;" parent="b3Nxh0a8uUn3oDR11aNZ-41" vertex="1">
                    <mxGeometry y="60" width="160" height="26" as="geometry"/>
                </mxCell>
                <mxCell id="b3Nxh0a8uUn3oDR11aNZ-45" style="edgeStyle=orthogonalEdgeStyle;rounded=0;orthogonalLoop=1;jettySize=auto;html=1;endArrow=diamond;endFill=1;entryX=0.025;entryY=0.925;entryDx=0;entryDy=0;entryPerimeter=0;" parent="1" source="b3Nxh0a8uUn3oDR11aNZ-47" target="b3Nxh0a8uUn3oDR11aNZ-37" edge="1">
                    <mxGeometry relative="1" as="geometry">
                        <mxPoint x="654" y="420" as="targetPoint"/>
                    </mxGeometry>
                </mxCell>
                <mxCell id="b3Nxh0a8uUn3oDR11aNZ-46" value="0..*" style="edgeLabel;html=1;align=center;verticalAlign=middle;resizable=0;points=[];" parent="b3Nxh0a8uUn3oDR11aNZ-45" vertex="1" connectable="0">
                    <mxGeometry x="-0.3319" y="1" relative="1" as="geometry">
                        <mxPoint as="offset"/>
                    </mxGeometry>
                </mxCell>
                <mxCell id="b3Nxh0a8uUn3oDR11aNZ-47" value="«View»&lt;div&gt;&lt;br/&gt;&lt;/div&gt;" style="html=1;whiteSpace=wrap;" parent="1" vertex="1">
                    <mxGeometry x="350" y="280" width="110" height="50" as="geometry"/>
                </mxCell>
                <mxCell id="b3Nxh0a8uUn3oDR11aNZ-48" style="edgeStyle=orthogonalEdgeStyle;rounded=0;orthogonalLoop=1;jettySize=auto;html=1;entryX=0.007;entryY=0.263;entryDx=0;entryDy=0;entryPerimeter=0;endArrow=diamond;endFill=1;" parent="1" source="b3Nxh0a8uUn3oDR11aNZ-43" target="b3Nxh0a8uUn3oDR11aNZ-37" edge="1">
                    <mxGeometry relative="1" as="geometry"/>
                </mxCell>
                <mxCell id="b3Nxh0a8uUn3oDR11aNZ-49" value="1" style="text;html=1;align=center;verticalAlign=middle;resizable=0;points=[];autosize=1;strokeColor=none;fillColor=none;" parent="1" vertex="1">
                    <mxGeometry x="460" y="128" width="30" height="30" as="geometry"/>
                </mxCell>
                <mxCell id="b3Nxh0a8uUn3oDR11aNZ-50" value="«Controller»&lt;div&gt;&lt;br&gt;&lt;/div&gt;" style="html=1;whiteSpace=wrap;" parent="1" vertex="1">
                    <mxGeometry x="350" y="370" width="110" height="50" as="geometry"/>
                </mxCell>
                <mxCell id="b3Nxh0a8uUn3oDR11aNZ-51" style="edgeStyle=orthogonalEdgeStyle;rounded=0;orthogonalLoop=1;jettySize=auto;html=1;endArrow=diamond;endFill=1;exitX=1;exitY=0.5;exitDx=0;exitDy=0;" parent="1" source="b3Nxh0a8uUn3oDR11aNZ-50" target="b3Nxh0a8uUn3oDR11aNZ-39" edge="1">
                    <mxGeometry relative="1" as="geometry">
                        <mxPoint x="629" y="230" as="targetPoint"/>
                        <mxPoint x="415" y="290" as="sourcePoint"/>
                    </mxGeometry>
                </mxCell>
                <mxCell id="b3Nxh0a8uUn3oDR11aNZ-52" value="0..*" style="edgeLabel;html=1;align=center;verticalAlign=middle;resizable=0;points=[];" parent="b3Nxh0a8uUn3oDR11aNZ-51" vertex="1" connectable="0">
                    <mxGeometry x="-0.3319" y="1" relative="1" as="geometry">
                        <mxPoint as="offset"/>
                    </mxGeometry>
                </mxCell>
                <mxCell id="b3Nxh0a8uUn3oDR11aNZ-59" value="«View»&lt;div&gt;&lt;br/&gt;&lt;/div&gt;" style="html=1;whiteSpace=wrap;" parent="1" vertex="1">
                    <mxGeometry x="-124" y="520" width="264" height="50" as="geometry"/>
                </mxCell>
                <mxCell id="b3Nxh0a8uUn3oDR11aNZ-60" value="" style="endArrow=block;dashed=1;endFill=0;endSize=12;html=1;rounded=0;entryX=0.25;entryY=1;entryDx=0;entryDy=0;exitX=0.431;exitY=-0.005;exitDx=0;exitDy=0;exitPerimeter=0;" parent="1" source="b3Nxh0a8uUn3oDR11aNZ-61" target="b3Nxh0a8uUn3oDR11aNZ-59" edge="1">
                    <mxGeometry width="160" relative="1" as="geometry">
                        <mxPoint x="-160" y="700" as="sourcePoint"/>
                        <mxPoint x="36" y="730" as="targetPoint"/>
                        <Array as="points">
                            <mxPoint x="-160" y="650"/>
                            <mxPoint x="-58" y="650"/>
                        </Array>
                    </mxGeometry>
                </mxCell>
                <mxCell id="b3Nxh0a8uUn3oDR11aNZ-61" value="GenericView" style="swimlane;fontStyle=0;childLayout=stackLayout;horizontal=1;startSize=26;fillColor=none;horizontalStack=0;resizeParent=1;resizeParentMax=0;resizeLast=0;collapsible=1;marginBottom=0;whiteSpace=wrap;html=1;" parent="1" vertex="1">
                    <mxGeometry x="-220" y="846" width="140" height="104" as="geometry"/>
                </mxCell>
                <mxCell id="b3Nxh0a8uUn3oDR11aNZ-62" value="+ field: type" style="text;strokeColor=none;fillColor=none;align=left;verticalAlign=top;spacingLeft=4;spacingRight=4;overflow=hidden;rotatable=0;points=[[0,0.5],[1,0.5]];portConstraint=eastwest;whiteSpace=wrap;html=1;" parent="b3Nxh0a8uUn3oDR11aNZ-61" vertex="1">
                    <mxGeometry y="26" width="140" height="26" as="geometry"/>
                </mxCell>
                <mxCell id="b3Nxh0a8uUn3oDR11aNZ-63" value="+ field: type" style="text;strokeColor=none;fillColor=none;align=left;verticalAlign=top;spacingLeft=4;spacingRight=4;overflow=hidden;rotatable=0;points=[[0,0.5],[1,0.5]];portConstraint=eastwest;whiteSpace=wrap;html=1;" parent="b3Nxh0a8uUn3oDR11aNZ-61" vertex="1">
                    <mxGeometry y="52" width="140" height="26" as="geometry"/>
                </mxCell>
                <mxCell id="b3Nxh0a8uUn3oDR11aNZ-64" value="+ field: type" style="text;strokeColor=none;fillColor=none;align=left;verticalAlign=top;spacingLeft=4;spacingRight=4;overflow=hidden;rotatable=0;points=[[0,0.5],[1,0.5]];portConstraint=eastwest;whiteSpace=wrap;html=1;" parent="b3Nxh0a8uUn3oDR11aNZ-61" vertex="1">
                    <mxGeometry y="78" width="140" height="26" as="geometry"/>
                </mxCell>
                <mxCell id="b3Nxh0a8uUn3oDR11aNZ-65" value="" style="endArrow=block;dashed=1;endFill=0;endSize=12;html=1;rounded=0;exitX=0.325;exitY=0.02;exitDx=0;exitDy=0;exitPerimeter=0;" parent="1" source="b3Nxh0a8uUn3oDR11aNZ-66" target="b3Nxh0a8uUn3oDR11aNZ-59" edge="1">
                    <mxGeometry width="160" relative="1" as="geometry">
                        <mxPoint x="-20" y="720" as="sourcePoint"/>
                        <mxPoint x="-46" y="571" as="targetPoint"/>
                        <Array as="points">
                            <mxPoint x="-20" y="650"/>
                            <mxPoint x="10" y="650"/>
                        </Array>
                    </mxGeometry>
                </mxCell>
                <mxCell id="b3Nxh0a8uUn3oDR11aNZ-66" value="NeedlView" style="swimlane;fontStyle=1;align=center;verticalAlign=top;childLayout=stackLayout;horizontal=1;startSize=26;horizontalStack=0;resizeParent=1;resizeParentMax=0;resizeLast=0;collapsible=1;marginBottom=0;whiteSpace=wrap;html=1;" parent="1" vertex="1">
                    <mxGeometry x="-70" y="740" width="160" height="86" as="geometry"/>
                </mxCell>
                <mxCell id="b3Nxh0a8uUn3oDR11aNZ-67" value="+ field: type" style="text;strokeColor=none;fillColor=none;align=left;verticalAlign=top;spacingLeft=4;spacingRight=4;overflow=hidden;rotatable=0;points=[[0,0.5],[1,0.5]];portConstraint=eastwest;whiteSpace=wrap;html=1;" parent="b3Nxh0a8uUn3oDR11aNZ-66" vertex="1">
                    <mxGeometry y="26" width="160" height="26" as="geometry"/>
                </mxCell>
                <mxCell id="b3Nxh0a8uUn3oDR11aNZ-68" value="" style="line;strokeWidth=1;fillColor=none;align=left;verticalAlign=middle;spacingTop=-1;spacingLeft=3;spacingRight=3;rotatable=0;labelPosition=right;points=[];portConstraint=eastwest;strokeColor=inherit;" parent="b3Nxh0a8uUn3oDR11aNZ-66" vertex="1">
                    <mxGeometry y="52" width="160" height="8" as="geometry"/>
                </mxCell>
                <mxCell id="b3Nxh0a8uUn3oDR11aNZ-69" value="+ method(type): type" style="text;strokeColor=none;fillColor=none;align=left;verticalAlign=top;spacingLeft=4;spacingRight=4;overflow=hidden;rotatable=0;points=[[0,0.5],[1,0.5]];portConstraint=eastwest;whiteSpace=wrap;html=1;" parent="b3Nxh0a8uUn3oDR11aNZ-66" vertex="1">
                    <mxGeometry y="60" width="160" height="26" as="geometry"/>
                </mxCell>
                <mxCell id="b3Nxh0a8uUn3oDR11aNZ-70" value="NeedlView" style="swimlane;fontStyle=1;align=center;verticalAlign=top;childLayout=stackLayout;horizontal=1;startSize=26;horizontalStack=0;resizeParent=1;resizeParentMax=0;resizeLast=0;collapsible=1;marginBottom=0;whiteSpace=wrap;html=1;" parent="1" vertex="1">
                    <mxGeometry x="120" y="760" width="160" height="86" as="geometry"/>
                </mxCell>
                <mxCell id="b3Nxh0a8uUn3oDR11aNZ-71" value="+ field: type" style="text;strokeColor=none;fillColor=none;align=left;verticalAlign=top;spacingLeft=4;spacingRight=4;overflow=hidden;rotatable=0;points=[[0,0.5],[1,0.5]];portConstraint=eastwest;whiteSpace=wrap;html=1;" parent="b3Nxh0a8uUn3oDR11aNZ-70" vertex="1">
                    <mxGeometry y="26" width="160" height="26" as="geometry"/>
                </mxCell>
                <mxCell id="b3Nxh0a8uUn3oDR11aNZ-72" value="" style="line;strokeWidth=1;fillColor=none;align=left;verticalAlign=middle;spacingTop=-1;spacingLeft=3;spacingRight=3;rotatable=0;labelPosition=right;points=[];portConstraint=eastwest;strokeColor=inherit;" parent="b3Nxh0a8uUn3oDR11aNZ-70" vertex="1">
                    <mxGeometry y="52" width="160" height="8" as="geometry"/>
                </mxCell>
                <mxCell id="b3Nxh0a8uUn3oDR11aNZ-73" value="+ method(type): type" style="text;strokeColor=none;fillColor=none;align=left;verticalAlign=top;spacingLeft=4;spacingRight=4;overflow=hidden;rotatable=0;points=[[0,0.5],[1,0.5]];portConstraint=eastwest;whiteSpace=wrap;html=1;" parent="b3Nxh0a8uUn3oDR11aNZ-70" vertex="1">
                    <mxGeometry y="60" width="160" height="26" as="geometry"/>
                </mxCell>
                <mxCell id="b3Nxh0a8uUn3oDR11aNZ-74" value="" style="endArrow=block;dashed=1;endFill=0;endSize=12;html=1;rounded=0;exitX=0.391;exitY=0.052;exitDx=0;exitDy=0;exitPerimeter=0;entryX=0.817;entryY=1.057;entryDx=0;entryDy=0;entryPerimeter=0;" parent="1" source="b3Nxh0a8uUn3oDR11aNZ-70" target="b3Nxh0a8uUn3oDR11aNZ-59" edge="1">
                    <mxGeometry width="160" relative="1" as="geometry">
                        <mxPoint x="180" y="740" as="sourcePoint"/>
                        <mxPoint x="130" y="568" as="targetPoint"/>
                        <Array as="points">
                            <mxPoint x="179" y="648"/>
                            <mxPoint x="90" y="648"/>
                        </Array>
                    </mxGeometry>
                </mxCell>
                <mxCell id="b3Nxh0a8uUn3oDR11aNZ-75" value="ContainerView" style="swimlane;fontStyle=0;childLayout=stackLayout;horizontal=1;startSize=30;fillColor=none;horizontalStack=0;resizeParent=1;resizeParentMax=0;resizeLast=0;collapsible=1;marginBottom=0;whiteSpace=wrap;html=1;" parent="1" vertex="1">
                    <mxGeometry x="-390" y="1040" width="140" height="108" as="geometry"/>
                </mxCell>
                <mxCell id="b3Nxh0a8uUn3oDR11aNZ-76" value="+ field: type" style="text;strokeColor=none;fillColor=none;align=left;verticalAlign=top;spacingLeft=4;spacingRight=4;overflow=hidden;rotatable=0;points=[[0,0.5],[1,0.5]];portConstraint=eastwest;whiteSpace=wrap;html=1;" parent="b3Nxh0a8uUn3oDR11aNZ-75" vertex="1">
                    <mxGeometry y="30" width="140" height="26" as="geometry"/>
                </mxCell>
                <mxCell id="b3Nxh0a8uUn3oDR11aNZ-77" value="+ field: type" style="text;strokeColor=none;fillColor=none;align=left;verticalAlign=top;spacingLeft=4;spacingRight=4;overflow=hidden;rotatable=0;points=[[0,0.5],[1,0.5]];portConstraint=eastwest;whiteSpace=wrap;html=1;" parent="b3Nxh0a8uUn3oDR11aNZ-75" vertex="1">
                    <mxGeometry y="56" width="140" height="26" as="geometry"/>
                </mxCell>
                <mxCell id="b3Nxh0a8uUn3oDR11aNZ-78" value="+ field: type" style="text;strokeColor=none;fillColor=none;align=left;verticalAlign=top;spacingLeft=4;spacingRight=4;overflow=hidden;rotatable=0;points=[[0,0.5],[1,0.5]];portConstraint=eastwest;whiteSpace=wrap;html=1;" parent="b3Nxh0a8uUn3oDR11aNZ-75" vertex="1">
                    <mxGeometry y="82" width="140" height="26" as="geometry"/>
                </mxCell>
                <mxCell id="b3Nxh0a8uUn3oDR11aNZ-79" value="ButtonView" style="swimlane;fontStyle=0;childLayout=stackLayout;horizontal=1;startSize=26;fillColor=none;horizontalStack=0;resizeParent=1;resizeParentMax=0;resizeLast=0;collapsible=1;marginBottom=0;whiteSpace=wrap;html=1;" parent="1" vertex="1">
                    <mxGeometry x="-210" y="1042" width="140" height="104" as="geometry"/>
                </mxCell>
                <mxCell id="b3Nxh0a8uUn3oDR11aNZ-80" value="+ field: type" style="text;strokeColor=none;fillColor=none;align=left;verticalAlign=top;spacingLeft=4;spacingRight=4;overflow=hidden;rotatable=0;points=[[0,0.5],[1,0.5]];portConstraint=eastwest;whiteSpace=wrap;html=1;" parent="b3Nxh0a8uUn3oDR11aNZ-79" vertex="1">
                    <mxGeometry y="26" width="140" height="26" as="geometry"/>
                </mxCell>
                <mxCell id="b3Nxh0a8uUn3oDR11aNZ-81" value="+ field: type" style="text;strokeColor=none;fillColor=none;align=left;verticalAlign=top;spacingLeft=4;spacingRight=4;overflow=hidden;rotatable=0;points=[[0,0.5],[1,0.5]];portConstraint=eastwest;whiteSpace=wrap;html=1;" parent="b3Nxh0a8uUn3oDR11aNZ-79" vertex="1">
                    <mxGeometry y="52" width="140" height="26" as="geometry"/>
                </mxCell>
                <mxCell id="b3Nxh0a8uUn3oDR11aNZ-82" value="+ field: type" style="text;strokeColor=none;fillColor=none;align=left;verticalAlign=top;spacingLeft=4;spacingRight=4;overflow=hidden;rotatable=0;points=[[0,0.5],[1,0.5]];portConstraint=eastwest;whiteSpace=wrap;html=1;" parent="b3Nxh0a8uUn3oDR11aNZ-79" vertex="1">
                    <mxGeometry y="78" width="140" height="26" as="geometry"/>
                </mxCell>
                <mxCell id="b3Nxh0a8uUn3oDR11aNZ-83" value="DefaultStrategyTimeView" style="swimlane;fontStyle=0;childLayout=stackLayout;horizontal=1;startSize=26;fillColor=none;horizontalStack=0;resizeParent=1;resizeParentMax=0;resizeLast=0;collapsible=1;marginBottom=0;whiteSpace=wrap;html=1;" parent="1" vertex="1">
                    <mxGeometry x="-390" y="1230" width="150" height="104" as="geometry"/>
                </mxCell>
                <mxCell id="b3Nxh0a8uUn3oDR11aNZ-84" value="+ field: type" style="text;strokeColor=none;fillColor=none;align=left;verticalAlign=top;spacingLeft=4;spacingRight=4;overflow=hidden;rotatable=0;points=[[0,0.5],[1,0.5]];portConstraint=eastwest;whiteSpace=wrap;html=1;" parent="b3Nxh0a8uUn3oDR11aNZ-83" vertex="1">
                    <mxGeometry y="26" width="150" height="26" as="geometry"/>
                </mxCell>
                <mxCell id="b3Nxh0a8uUn3oDR11aNZ-85" value="+ field: type" style="text;strokeColor=none;fillColor=none;align=left;verticalAlign=top;spacingLeft=4;spacingRight=4;overflow=hidden;rotatable=0;points=[[0,0.5],[1,0.5]];portConstraint=eastwest;whiteSpace=wrap;html=1;" parent="b3Nxh0a8uUn3oDR11aNZ-83" vertex="1">
                    <mxGeometry y="52" width="150" height="26" as="geometry"/>
                </mxCell>
                <mxCell id="b3Nxh0a8uUn3oDR11aNZ-86" value="+ field: type" style="text;strokeColor=none;fillColor=none;align=left;verticalAlign=top;spacingLeft=4;spacingRight=4;overflow=hidden;rotatable=0;points=[[0,0.5],[1,0.5]];portConstraint=eastwest;whiteSpace=wrap;html=1;" parent="b3Nxh0a8uUn3oDR11aNZ-83" vertex="1">
                    <mxGeometry y="78" width="150" height="26" as="geometry"/>
                </mxCell>
                <mxCell id="b3Nxh0a8uUn3oDR11aNZ-87" value="Extends" style="endArrow=block;endSize=16;endFill=0;html=1;rounded=0;exitX=0.641;exitY=-0.032;exitDx=0;exitDy=0;exitPerimeter=0;entryX=0.141;entryY=0.981;entryDx=0;entryDy=0;entryPerimeter=0;" parent="1" source="b3Nxh0a8uUn3oDR11aNZ-75" target="b3Nxh0a8uUn3oDR11aNZ-64" edge="1">
                    <mxGeometry width="160" relative="1" as="geometry">
                        <mxPoint x="-200" y="970" as="sourcePoint"/>
                        <mxPoint x="-40" y="970" as="targetPoint"/>
                        <Array as="points">
                            <mxPoint x="-300" y="990"/>
                            <mxPoint x="-200" y="990"/>
                        </Array>
                    </mxGeometry>
                </mxCell>
                <mxCell id="b3Nxh0a8uUn3oDR11aNZ-88" value="Extends" style="endArrow=block;endSize=16;endFill=0;html=1;rounded=0;exitX=0.316;exitY=-0.026;exitDx=0;exitDy=0;exitPerimeter=0;entryX=0.391;entryY=1.173;entryDx=0;entryDy=0;entryPerimeter=0;" parent="1" source="b3Nxh0a8uUn3oDR11aNZ-79" target="b3Nxh0a8uUn3oDR11aNZ-64" edge="1">
                    <mxGeometry width="160" relative="1" as="geometry">
                        <mxPoint x="-290" y="1047" as="sourcePoint"/>
                        <mxPoint x="-190" y="960" as="targetPoint"/>
                        <Array as="points">
                            <mxPoint x="-165" y="1000"/>
                        </Array>
                    </mxGeometry>
                </mxCell>
                <mxCell id="b3Nxh0a8uUn3oDR11aNZ-89" value="Extends" style="endArrow=block;endSize=16;endFill=0;html=1;rounded=0;exitX=0.5;exitY=0;exitDx=0;exitDy=0;entryX=0.478;entryY=0.87;entryDx=0;entryDy=0;entryPerimeter=0;" parent="1" source="b3Nxh0a8uUn3oDR11aNZ-83" target="b3Nxh0a8uUn3oDR11aNZ-78" edge="1">
                    <mxGeometry width="160" relative="1" as="geometry">
                        <mxPoint x="-260" y="1050" as="sourcePoint"/>
                        <mxPoint x="-100" y="1050" as="targetPoint"/>
                    </mxGeometry>
                </mxCell>
                <mxCell id="b3Nxh0a8uUn3oDR11aNZ-90" value="StrategicMecanicalTimeView" style="swimlane;fontStyle=0;childLayout=stackLayout;horizontal=1;startSize=26;fillColor=none;horizontalStack=0;resizeParent=1;resizeParentMax=0;resizeLast=0;collapsible=1;marginBottom=0;whiteSpace=wrap;html=1;" parent="1" vertex="1">
                    <mxGeometry x="-40" y="1040" width="180" height="104" as="geometry"/>
                </mxCell>
                <mxCell id="b3Nxh0a8uUn3oDR11aNZ-91" value="+ field: type" style="text;strokeColor=none;fillColor=none;align=left;verticalAlign=top;spacingLeft=4;spacingRight=4;overflow=hidden;rotatable=0;points=[[0,0.5],[1,0.5]];portConstraint=eastwest;whiteSpace=wrap;html=1;" parent="b3Nxh0a8uUn3oDR11aNZ-90" vertex="1">
                    <mxGeometry y="26" width="180" height="26" as="geometry"/>
                </mxCell>
                <mxCell id="b3Nxh0a8uUn3oDR11aNZ-92" value="+ field: type" style="text;strokeColor=none;fillColor=none;align=left;verticalAlign=top;spacingLeft=4;spacingRight=4;overflow=hidden;rotatable=0;points=[[0,0.5],[1,0.5]];portConstraint=eastwest;whiteSpace=wrap;html=1;" parent="b3Nxh0a8uUn3oDR11aNZ-90" vertex="1">
                    <mxGeometry y="52" width="180" height="26" as="geometry"/>
                </mxCell>
                <mxCell id="b3Nxh0a8uUn3oDR11aNZ-93" value="+ field: type" style="text;strokeColor=none;fillColor=none;align=left;verticalAlign=top;spacingLeft=4;spacingRight=4;overflow=hidden;rotatable=0;points=[[0,0.5],[1,0.5]];portConstraint=eastwest;whiteSpace=wrap;html=1;" parent="b3Nxh0a8uUn3oDR11aNZ-90" vertex="1">
                    <mxGeometry y="78" width="180" height="26" as="geometry"/>
                </mxCell>
                <mxCell id="b3Nxh0a8uUn3oDR11aNZ-96" style="edgeStyle=orthogonalEdgeStyle;rounded=0;orthogonalLoop=1;jettySize=auto;html=1;entryX=0.66;entryY=1.032;entryDx=0;entryDy=0;entryPerimeter=0;endArrow=block;endFill=0;" parent="1" source="b3Nxh0a8uUn3oDR11aNZ-90" target="b3Nxh0a8uUn3oDR11aNZ-64" edge="1">
                    <mxGeometry relative="1" as="geometry"/>
                </mxCell>
                <mxCell id="b3Nxh0a8uUn3oDR11aNZ-97" value="Extends" style="edgeLabel;html=1;align=center;verticalAlign=middle;resizable=0;points=[];" parent="b3Nxh0a8uUn3oDR11aNZ-96" vertex="1" connectable="0">
                    <mxGeometry x="-0.1031" relative="1" as="geometry">
                        <mxPoint as="offset"/>
                    </mxGeometry>
                </mxCell>
                <mxCell id="b3Nxh0a8uUn3oDR11aNZ-98" value="«Controller»&lt;div&gt;&lt;br&gt;&lt;/div&gt;" style="html=1;whiteSpace=wrap;" parent="1" vertex="1">
                    <mxGeometry x="440" y="496" width="2030" height="50" as="geometry"/>
                </mxCell>
                <mxCell id="b3Nxh0a8uUn3oDR11aNZ-136" value="" style="edgeStyle=orthogonalEdgeStyle;rounded=0;orthogonalLoop=1;jettySize=auto;html=1;dashed=1;endArrow=block;endFill=0;" parent="1" source="b3Nxh0a8uUn3oDR11aNZ-100" target="b3Nxh0a8uUn3oDR11aNZ-98" edge="1">
                    <mxGeometry relative="1" as="geometry"/>
                </mxCell>
                <mxCell id="b3Nxh0a8uUn3oDR11aNZ-100" value="DeleteConotroller" style="swimlane;fontStyle=1;align=center;verticalAlign=top;childLayout=stackLayout;horizontal=1;startSize=26;horizontalStack=0;resizeParent=1;resizeParentMax=0;resizeLast=0;collapsible=1;marginBottom=0;whiteSpace=wrap;html=1;" parent="1" vertex="1">
                    <mxGeometry x="330" y="584" width="160" height="86" as="geometry"/>
                </mxCell>
                <mxCell id="b3Nxh0a8uUn3oDR11aNZ-101" value="+ field: type" style="text;strokeColor=none;fillColor=none;align=left;verticalAlign=top;spacingLeft=4;spacingRight=4;overflow=hidden;rotatable=0;points=[[0,0.5],[1,0.5]];portConstraint=eastwest;whiteSpace=wrap;html=1;" parent="b3Nxh0a8uUn3oDR11aNZ-100" vertex="1">
                    <mxGeometry y="26" width="160" height="26" as="geometry"/>
                </mxCell>
                <mxCell id="b3Nxh0a8uUn3oDR11aNZ-102" value="" style="line;strokeWidth=1;fillColor=none;align=left;verticalAlign=middle;spacingTop=-1;spacingLeft=3;spacingRight=3;rotatable=0;labelPosition=right;points=[];portConstraint=eastwest;strokeColor=inherit;" parent="b3Nxh0a8uUn3oDR11aNZ-100" vertex="1">
                    <mxGeometry y="52" width="160" height="8" as="geometry"/>
                </mxCell>
                <mxCell id="b3Nxh0a8uUn3oDR11aNZ-103" value="+ method(type): type" style="text;strokeColor=none;fillColor=none;align=left;verticalAlign=top;spacingLeft=4;spacingRight=4;overflow=hidden;rotatable=0;points=[[0,0.5],[1,0.5]];portConstraint=eastwest;whiteSpace=wrap;html=1;" parent="b3Nxh0a8uUn3oDR11aNZ-100" vertex="1">
                    <mxGeometry y="60" width="160" height="26" as="geometry"/>
                </mxCell>
                <mxCell id="b3Nxh0a8uUn3oDR11aNZ-137" value="" style="edgeStyle=orthogonalEdgeStyle;rounded=0;orthogonalLoop=1;jettySize=auto;html=1;dashed=1;endArrow=block;endFill=0;" parent="1" source="b3Nxh0a8uUn3oDR11aNZ-104" target="b3Nxh0a8uUn3oDR11aNZ-98" edge="1">
                    <mxGeometry relative="1" as="geometry"/>
                </mxCell>
                <mxCell id="b3Nxh0a8uUn3oDR11aNZ-104" value="ForwardTimeController" style="swimlane;fontStyle=1;align=center;verticalAlign=top;childLayout=stackLayout;horizontal=1;startSize=26;horizontalStack=0;resizeParent=1;resizeParentMax=0;resizeLast=0;collapsible=1;marginBottom=0;whiteSpace=wrap;html=1;" parent="1" vertex="1">
                    <mxGeometry x="510" y="600" width="160" height="86" as="geometry"/>
                </mxCell>
                <mxCell id="b3Nxh0a8uUn3oDR11aNZ-105" value="+ field: type" style="text;strokeColor=none;fillColor=none;align=left;verticalAlign=top;spacingLeft=4;spacingRight=4;overflow=hidden;rotatable=0;points=[[0,0.5],[1,0.5]];portConstraint=eastwest;whiteSpace=wrap;html=1;" parent="b3Nxh0a8uUn3oDR11aNZ-104" vertex="1">
                    <mxGeometry y="26" width="160" height="26" as="geometry"/>
                </mxCell>
                <mxCell id="b3Nxh0a8uUn3oDR11aNZ-106" value="" style="line;strokeWidth=1;fillColor=none;align=left;verticalAlign=middle;spacingTop=-1;spacingLeft=3;spacingRight=3;rotatable=0;labelPosition=right;points=[];portConstraint=eastwest;strokeColor=inherit;" parent="b3Nxh0a8uUn3oDR11aNZ-104" vertex="1">
                    <mxGeometry y="52" width="160" height="8" as="geometry"/>
                </mxCell>
                <mxCell id="b3Nxh0a8uUn3oDR11aNZ-107" value="+ method(type): type" style="text;strokeColor=none;fillColor=none;align=left;verticalAlign=top;spacingLeft=4;spacingRight=4;overflow=hidden;rotatable=0;points=[[0,0.5],[1,0.5]];portConstraint=eastwest;whiteSpace=wrap;html=1;" parent="b3Nxh0a8uUn3oDR11aNZ-104" vertex="1">
                    <mxGeometry y="60" width="160" height="26" as="geometry"/>
                </mxCell>
                <mxCell id="b3Nxh0a8uUn3oDR11aNZ-138" value="" style="edgeStyle=orthogonalEdgeStyle;rounded=0;orthogonalLoop=1;jettySize=auto;html=1;dashed=1;endArrow=block;endFill=0;" parent="1" source="b3Nxh0a8uUn3oDR11aNZ-108" target="b3Nxh0a8uUn3oDR11aNZ-98" edge="1">
                    <mxGeometry relative="1" as="geometry"/>
                </mxCell>
                <mxCell id="b3Nxh0a8uUn3oDR11aNZ-108" value="GrabController" style="swimlane;fontStyle=1;align=center;verticalAlign=top;childLayout=stackLayout;horizontal=1;startSize=26;horizontalStack=0;resizeParent=1;resizeParentMax=0;resizeLast=0;collapsible=1;marginBottom=0;whiteSpace=wrap;html=1;" parent="1" vertex="1">
                    <mxGeometry x="720" y="610" width="160" height="86" as="geometry"/>
                </mxCell>
                <mxCell id="b3Nxh0a8uUn3oDR11aNZ-109" value="+ field: type" style="text;strokeColor=none;fillColor=none;align=left;verticalAlign=top;spacingLeft=4;spacingRight=4;overflow=hidden;rotatable=0;points=[[0,0.5],[1,0.5]];portConstraint=eastwest;whiteSpace=wrap;html=1;" parent="b3Nxh0a8uUn3oDR11aNZ-108" vertex="1">
                    <mxGeometry y="26" width="160" height="26" as="geometry"/>
                </mxCell>
                <mxCell id="b3Nxh0a8uUn3oDR11aNZ-110" value="" style="line;strokeWidth=1;fillColor=none;align=left;verticalAlign=middle;spacingTop=-1;spacingLeft=3;spacingRight=3;rotatable=0;labelPosition=right;points=[];portConstraint=eastwest;strokeColor=inherit;" parent="b3Nxh0a8uUn3oDR11aNZ-108" vertex="1">
                    <mxGeometry y="52" width="160" height="8" as="geometry"/>
                </mxCell>
                <mxCell id="b3Nxh0a8uUn3oDR11aNZ-111" value="+ method(type): type" style="text;strokeColor=none;fillColor=none;align=left;verticalAlign=top;spacingLeft=4;spacingRight=4;overflow=hidden;rotatable=0;points=[[0,0.5],[1,0.5]];portConstraint=eastwest;whiteSpace=wrap;html=1;" parent="b3Nxh0a8uUn3oDR11aNZ-108" vertex="1">
                    <mxGeometry y="60" width="160" height="26" as="geometry"/>
                </mxCell>
                <mxCell id="b3Nxh0a8uUn3oDR11aNZ-139" value="" style="edgeStyle=orthogonalEdgeStyle;rounded=0;orthogonalLoop=1;jettySize=auto;html=1;dashed=1;endArrow=block;endFill=0;" parent="1" source="b3Nxh0a8uUn3oDR11aNZ-112" target="b3Nxh0a8uUn3oDR11aNZ-98" edge="1">
                    <mxGeometry relative="1" as="geometry"/>
                </mxCell>
                <mxCell id="b3Nxh0a8uUn3oDR11aNZ-112" value="LightController" style="swimlane;fontStyle=1;align=center;verticalAlign=top;childLayout=stackLayout;horizontal=1;startSize=26;horizontalStack=0;resizeParent=1;resizeParentMax=0;resizeLast=0;collapsible=1;marginBottom=0;whiteSpace=wrap;html=1;" parent="1" vertex="1">
                    <mxGeometry x="920" y="610" width="160" height="86" as="geometry"/>
                </mxCell>
                <mxCell id="b3Nxh0a8uUn3oDR11aNZ-113" value="+ field: type" style="text;strokeColor=none;fillColor=none;align=left;verticalAlign=top;spacingLeft=4;spacingRight=4;overflow=hidden;rotatable=0;points=[[0,0.5],[1,0.5]];portConstraint=eastwest;whiteSpace=wrap;html=1;" parent="b3Nxh0a8uUn3oDR11aNZ-112" vertex="1">
                    <mxGeometry y="26" width="160" height="26" as="geometry"/>
                </mxCell>
                <mxCell id="b3Nxh0a8uUn3oDR11aNZ-114" value="" style="line;strokeWidth=1;fillColor=none;align=left;verticalAlign=middle;spacingTop=-1;spacingLeft=3;spacingRight=3;rotatable=0;labelPosition=right;points=[];portConstraint=eastwest;strokeColor=inherit;" parent="b3Nxh0a8uUn3oDR11aNZ-112" vertex="1">
                    <mxGeometry y="52" width="160" height="8" as="geometry"/>
                </mxCell>
                <mxCell id="b3Nxh0a8uUn3oDR11aNZ-115" value="+ method(type): type" style="text;strokeColor=none;fillColor=none;align=left;verticalAlign=top;spacingLeft=4;spacingRight=4;overflow=hidden;rotatable=0;points=[[0,0.5],[1,0.5]];portConstraint=eastwest;whiteSpace=wrap;html=1;" parent="b3Nxh0a8uUn3oDR11aNZ-112" vertex="1">
                    <mxGeometry y="60" width="160" height="26" as="geometry"/>
                </mxCell>
                <mxCell id="b3Nxh0a8uUn3oDR11aNZ-140" value="" style="edgeStyle=orthogonalEdgeStyle;rounded=0;orthogonalLoop=1;jettySize=auto;html=1;dashed=1;dashPattern=8 8;" parent="1" source="b3Nxh0a8uUn3oDR11aNZ-116" target="b3Nxh0a8uUn3oDR11aNZ-98" edge="1">
                    <mxGeometry relative="1" as="geometry"/>
                </mxCell>
                <mxCell id="b3Nxh0a8uUn3oDR11aNZ-116" value="ResizeUpController" style="swimlane;fontStyle=1;align=center;verticalAlign=top;childLayout=stackLayout;horizontal=1;startSize=26;horizontalStack=0;resizeParent=1;resizeParentMax=0;resizeLast=0;collapsible=1;marginBottom=0;whiteSpace=wrap;html=1;" parent="1" vertex="1">
                    <mxGeometry x="1090" y="640" width="160" height="86" as="geometry"/>
                </mxCell>
                <mxCell id="b3Nxh0a8uUn3oDR11aNZ-117" value="+ field: type" style="text;strokeColor=none;fillColor=none;align=left;verticalAlign=top;spacingLeft=4;spacingRight=4;overflow=hidden;rotatable=0;points=[[0,0.5],[1,0.5]];portConstraint=eastwest;whiteSpace=wrap;html=1;" parent="b3Nxh0a8uUn3oDR11aNZ-116" vertex="1">
                    <mxGeometry y="26" width="160" height="26" as="geometry"/>
                </mxCell>
                <mxCell id="b3Nxh0a8uUn3oDR11aNZ-118" value="" style="line;strokeWidth=1;fillColor=none;align=left;verticalAlign=middle;spacingTop=-1;spacingLeft=3;spacingRight=3;rotatable=0;labelPosition=right;points=[];portConstraint=eastwest;strokeColor=inherit;" parent="b3Nxh0a8uUn3oDR11aNZ-116" vertex="1">
                    <mxGeometry y="52" width="160" height="8" as="geometry"/>
                </mxCell>
                <mxCell id="b3Nxh0a8uUn3oDR11aNZ-119" value="+ method(type): type" style="text;strokeColor=none;fillColor=none;align=left;verticalAlign=top;spacingLeft=4;spacingRight=4;overflow=hidden;rotatable=0;points=[[0,0.5],[1,0.5]];portConstraint=eastwest;whiteSpace=wrap;html=1;" parent="b3Nxh0a8uUn3oDR11aNZ-116" vertex="1">
                    <mxGeometry y="60" width="160" height="26" as="geometry"/>
                </mxCell>
                <mxCell id="b3Nxh0a8uUn3oDR11aNZ-141" value="" style="edgeStyle=orthogonalEdgeStyle;rounded=0;orthogonalLoop=1;jettySize=auto;html=1;dashed=1;endArrow=block;endFill=0;" parent="1" source="b3Nxh0a8uUn3oDR11aNZ-120" target="b3Nxh0a8uUn3oDR11aNZ-98" edge="1">
                    <mxGeometry relative="1" as="geometry"/>
                </mxCell>
                <mxCell id="b3Nxh0a8uUn3oDR11aNZ-120" value="ResizeDownController" style="swimlane;fontStyle=1;align=center;verticalAlign=top;childLayout=stackLayout;horizontal=1;startSize=26;horizontalStack=0;resizeParent=1;resizeParentMax=0;resizeLast=0;collapsible=1;marginBottom=0;whiteSpace=wrap;html=1;" parent="1" vertex="1">
                    <mxGeometry x="1420" y="620" width="160" height="86" as="geometry"/>
                </mxCell>
                <mxCell id="b3Nxh0a8uUn3oDR11aNZ-121" value="+ field: type" style="text;strokeColor=none;fillColor=none;align=left;verticalAlign=top;spacingLeft=4;spacingRight=4;overflow=hidden;rotatable=0;points=[[0,0.5],[1,0.5]];portConstraint=eastwest;whiteSpace=wrap;html=1;" parent="b3Nxh0a8uUn3oDR11aNZ-120" vertex="1">
                    <mxGeometry y="26" width="160" height="26" as="geometry"/>
                </mxCell>
                <mxCell id="b3Nxh0a8uUn3oDR11aNZ-122" value="" style="line;strokeWidth=1;fillColor=none;align=left;verticalAlign=middle;spacingTop=-1;spacingLeft=3;spacingRight=3;rotatable=0;labelPosition=right;points=[];portConstraint=eastwest;strokeColor=inherit;" parent="b3Nxh0a8uUn3oDR11aNZ-120" vertex="1">
                    <mxGeometry y="52" width="160" height="8" as="geometry"/>
                </mxCell>
                <mxCell id="b3Nxh0a8uUn3oDR11aNZ-123" value="+ method(type): type" style="text;strokeColor=none;fillColor=none;align=left;verticalAlign=top;spacingLeft=4;spacingRight=4;overflow=hidden;rotatable=0;points=[[0,0.5],[1,0.5]];portConstraint=eastwest;whiteSpace=wrap;html=1;" parent="b3Nxh0a8uUn3oDR11aNZ-120" vertex="1">
                    <mxGeometry y="60" width="160" height="26" as="geometry"/>
                </mxCell>
                <mxCell id="b3Nxh0a8uUn3oDR11aNZ-142" value="" style="edgeStyle=orthogonalEdgeStyle;rounded=0;orthogonalLoop=1;jettySize=auto;html=1;dashed=1;endArrow=block;endFill=0;" parent="1" source="b3Nxh0a8uUn3oDR11aNZ-124" target="b3Nxh0a8uUn3oDR11aNZ-98" edge="1">
                    <mxGeometry relative="1" as="geometry"/>
                </mxCell>
                <mxCell id="b3Nxh0a8uUn3oDR11aNZ-124" value="RotateController" style="swimlane;fontStyle=1;align=center;verticalAlign=top;childLayout=stackLayout;horizontal=1;startSize=26;horizontalStack=0;resizeParent=1;resizeParentMax=0;resizeLast=0;collapsible=1;marginBottom=0;whiteSpace=wrap;html=1;" parent="1" vertex="1">
                    <mxGeometry x="1620" y="620" width="160" height="86" as="geometry"/>
                </mxCell>
                <mxCell id="b3Nxh0a8uUn3oDR11aNZ-125" value="+ field: type" style="text;strokeColor=none;fillColor=none;align=left;verticalAlign=top;spacingLeft=4;spacingRight=4;overflow=hidden;rotatable=0;points=[[0,0.5],[1,0.5]];portConstraint=eastwest;whiteSpace=wrap;html=1;" parent="b3Nxh0a8uUn3oDR11aNZ-124" vertex="1">
                    <mxGeometry y="26" width="160" height="26" as="geometry"/>
                </mxCell>
                <mxCell id="b3Nxh0a8uUn3oDR11aNZ-126" value="" style="line;strokeWidth=1;fillColor=none;align=left;verticalAlign=middle;spacingTop=-1;spacingLeft=3;spacingRight=3;rotatable=0;labelPosition=right;points=[];portConstraint=eastwest;strokeColor=inherit;" parent="b3Nxh0a8uUn3oDR11aNZ-124" vertex="1">
                    <mxGeometry y="52" width="160" height="8" as="geometry"/>
                </mxCell>
                <mxCell id="b3Nxh0a8uUn3oDR11aNZ-127" value="+ method(type): type" style="text;strokeColor=none;fillColor=none;align=left;verticalAlign=top;spacingLeft=4;spacingRight=4;overflow=hidden;rotatable=0;points=[[0,0.5],[1,0.5]];portConstraint=eastwest;whiteSpace=wrap;html=1;" parent="b3Nxh0a8uUn3oDR11aNZ-124" vertex="1">
                    <mxGeometry y="60" width="160" height="26" as="geometry"/>
                </mxCell>
                <mxCell id="b3Nxh0a8uUn3oDR11aNZ-143" value="" style="edgeStyle=orthogonalEdgeStyle;rounded=0;orthogonalLoop=1;jettySize=auto;html=1;dashed=1;endArrow=block;endFill=0;" parent="1" source="b3Nxh0a8uUn3oDR11aNZ-128" target="b3Nxh0a8uUn3oDR11aNZ-98" edge="1">
                    <mxGeometry relative="1" as="geometry"/>
                </mxCell>
                <mxCell id="b3Nxh0a8uUn3oDR11aNZ-128" value="TimeBlinksController" style="swimlane;fontStyle=1;align=center;verticalAlign=top;childLayout=stackLayout;horizontal=1;startSize=26;horizontalStack=0;resizeParent=1;resizeParentMax=0;resizeLast=0;collapsible=1;marginBottom=0;whiteSpace=wrap;html=1;" parent="1" vertex="1">
                    <mxGeometry x="1850" y="610" width="160" height="86" as="geometry"/>
                </mxCell>
                <mxCell id="b3Nxh0a8uUn3oDR11aNZ-129" value="+ field: type" style="text;strokeColor=none;fillColor=none;align=left;verticalAlign=top;spacingLeft=4;spacingRight=4;overflow=hidden;rotatable=0;points=[[0,0.5],[1,0.5]];portConstraint=eastwest;whiteSpace=wrap;html=1;" parent="b3Nxh0a8uUn3oDR11aNZ-128" vertex="1">
                    <mxGeometry y="26" width="160" height="26" as="geometry"/>
                </mxCell>
                <mxCell id="b3Nxh0a8uUn3oDR11aNZ-130" value="" style="line;strokeWidth=1;fillColor=none;align=left;verticalAlign=middle;spacingTop=-1;spacingLeft=3;spacingRight=3;rotatable=0;labelPosition=right;points=[];portConstraint=eastwest;strokeColor=inherit;" parent="b3Nxh0a8uUn3oDR11aNZ-128" vertex="1">
                    <mxGeometry y="52" width="160" height="8" as="geometry"/>
                </mxCell>
                <mxCell id="b3Nxh0a8uUn3oDR11aNZ-131" value="+ method(type): type" style="text;strokeColor=none;fillColor=none;align=left;verticalAlign=top;spacingLeft=4;spacingRight=4;overflow=hidden;rotatable=0;points=[[0,0.5],[1,0.5]];portConstraint=eastwest;whiteSpace=wrap;html=1;" parent="b3Nxh0a8uUn3oDR11aNZ-128" vertex="1">
                    <mxGeometry y="60" width="160" height="26" as="geometry"/>
                </mxCell>
                <mxCell id="b3Nxh0a8uUn3oDR11aNZ-145" value="" style="edgeStyle=orthogonalEdgeStyle;rounded=0;orthogonalLoop=1;jettySize=auto;html=1;dashed=1;endArrow=block;endFill=0;" parent="1" source="b3Nxh0a8uUn3oDR11aNZ-132" target="b3Nxh0a8uUn3oDR11aNZ-98" edge="1">
                    <mxGeometry relative="1" as="geometry"/>
                </mxCell>
                <mxCell id="b3Nxh0a8uUn3oDR11aNZ-132" value="TimeStampController" style="swimlane;fontStyle=1;align=center;verticalAlign=top;childLayout=stackLayout;horizontal=1;startSize=26;horizontalStack=0;resizeParent=1;resizeParentMax=0;resizeLast=0;collapsible=1;marginBottom=0;whiteSpace=wrap;html=1;" parent="1" vertex="1">
                    <mxGeometry x="2040" y="610" width="160" height="86" as="geometry"/>
                </mxCell>
                <mxCell id="b3Nxh0a8uUn3oDR11aNZ-133" value="+ field: type" style="text;strokeColor=none;fillColor=none;align=left;verticalAlign=top;spacingLeft=4;spacingRight=4;overflow=hidden;rotatable=0;points=[[0,0.5],[1,0.5]];portConstraint=eastwest;whiteSpace=wrap;html=1;" parent="b3Nxh0a8uUn3oDR11aNZ-132" vertex="1">
                    <mxGeometry y="26" width="160" height="26" as="geometry"/>
                </mxCell>
                <mxCell id="b3Nxh0a8uUn3oDR11aNZ-134" value="" style="line;strokeWidth=1;fillColor=none;align=left;verticalAlign=middle;spacingTop=-1;spacingLeft=3;spacingRight=3;rotatable=0;labelPosition=right;points=[];portConstraint=eastwest;strokeColor=inherit;" parent="b3Nxh0a8uUn3oDR11aNZ-132" vertex="1">
                    <mxGeometry y="52" width="160" height="8" as="geometry"/>
                </mxCell>
                <mxCell id="b3Nxh0a8uUn3oDR11aNZ-135" value="+ method(type): type" style="text;strokeColor=none;fillColor=none;align=left;verticalAlign=top;spacingLeft=4;spacingRight=4;overflow=hidden;rotatable=0;points=[[0,0.5],[1,0.5]];portConstraint=eastwest;whiteSpace=wrap;html=1;" parent="b3Nxh0a8uUn3oDR11aNZ-132" vertex="1">
                    <mxGeometry y="60" width="160" height="26" as="geometry"/>
                </mxCell>
                <mxCell id="b3Nxh0a8uUn3oDR11aNZ-151" value="ClockNodeModel" style="swimlane;fontStyle=1;align=center;verticalAlign=top;childLayout=stackLayout;horizontal=1;startSize=26;horizontalStack=0;resizeParent=1;resizeParentMax=0;resizeLast=0;collapsible=1;marginBottom=0;whiteSpace=wrap;html=1;" parent="1" vertex="1">
                    <mxGeometry x="1140" y="90" width="160" height="112" as="geometry"/>
                </mxCell>
                <mxCell id="b3Nxh0a8uUn3oDR11aNZ-152" value="+ IDELEMENT: STRING" style="text;strokeColor=none;fillColor=none;align=left;verticalAlign=top;spacingLeft=4;spacingRight=4;overflow=hidden;rotatable=0;points=[[0,0.5],[1,0.5]];portConstraint=eastwest;whiteSpace=wrap;html=1;" parent="b3Nxh0a8uUn3oDR11aNZ-151" vertex="1">
                    <mxGeometry y="26" width="160" height="26" as="geometry"/>
                </mxCell>
                <mxCell id="b3Nxh0a8uUn3oDR11aNZ-170" style="edgeStyle=orthogonalEdgeStyle;rounded=0;orthogonalLoop=1;jettySize=auto;html=1;exitX=1;exitY=0.5;exitDx=0;exitDy=0;entryX=0.056;entryY=0.115;entryDx=0;entryDy=0;entryPerimeter=0;endArrow=diamondThin;endFill=0;" parent="b3Nxh0a8uUn3oDR11aNZ-151" source="b3Nxh0a8uUn3oDR11aNZ-158" target="b3Nxh0a8uUn3oDR11aNZ-152" edge="1">
                    <mxGeometry relative="1" as="geometry">
                        <mxPoint x="-30" y="30" as="targetPoint"/>
                        <Array as="points">
                            <mxPoint x="190" y="65"/>
                            <mxPoint x="190" y="-80"/>
                            <mxPoint x="-79" y="-80"/>
                            <mxPoint x="-79" y="30"/>
                            <mxPoint y="30"/>
                        </Array>
                    </mxGeometry>
                </mxCell>
                <mxCell id="b3Nxh0a8uUn3oDR11aNZ-171" value="0..*" style="edgeLabel;html=1;align=center;verticalAlign=middle;resizable=0;points=[];" parent="b3Nxh0a8uUn3oDR11aNZ-170" vertex="1" connectable="0">
                    <mxGeometry x="0.0381" relative="1" as="geometry">
                        <mxPoint as="offset"/>
                    </mxGeometry>
                </mxCell>
                <mxCell id="b3Nxh0a8uUn3oDR11aNZ-158" value="+ NodeType: STRING" style="text;strokeColor=none;fillColor=none;align=left;verticalAlign=top;spacingLeft=4;spacingRight=4;overflow=hidden;rotatable=0;points=[[0,0.5],[1,0.5]];portConstraint=eastwest;whiteSpace=wrap;html=1;" parent="b3Nxh0a8uUn3oDR11aNZ-151" vertex="1">
                    <mxGeometry y="52" width="160" height="26" as="geometry"/>
                </mxCell>
                <mxCell id="b3Nxh0a8uUn3oDR11aNZ-153" value="" style="line;strokeWidth=1;fillColor=none;align=left;verticalAlign=middle;spacingTop=-1;spacingLeft=3;spacingRight=3;rotatable=0;labelPosition=right;points=[];portConstraint=eastwest;strokeColor=inherit;" parent="b3Nxh0a8uUn3oDR11aNZ-151" vertex="1">
                    <mxGeometry y="78" width="160" height="8" as="geometry"/>
                </mxCell>
                <mxCell id="b3Nxh0a8uUn3oDR11aNZ-154" value="+ method(type): type" style="text;strokeColor=none;fillColor=none;align=left;verticalAlign=top;spacingLeft=4;spacingRight=4;overflow=hidden;rotatable=0;points=[[0,0.5],[1,0.5]];portConstraint=eastwest;whiteSpace=wrap;html=1;" parent="b3Nxh0a8uUn3oDR11aNZ-151" vertex="1">
                    <mxGeometry y="86" width="160" height="26" as="geometry"/>
                </mxCell>
                <mxCell id="b3Nxh0a8uUn3oDR11aNZ-173" value="Position" style="swimlane;fontStyle=0;childLayout=stackLayout;horizontal=1;startSize=26;fillColor=none;horizontalStack=0;resizeParent=1;resizeParentMax=0;resizeLast=0;collapsible=1;marginBottom=0;whiteSpace=wrap;html=1;" parent="1" vertex="1">
                    <mxGeometry x="1420" y="256" width="140" height="104" as="geometry"/>
                </mxCell>
                <mxCell id="b3Nxh0a8uUn3oDR11aNZ-174" value="+ x: number" style="text;strokeColor=none;fillColor=none;align=left;verticalAlign=top;spacingLeft=4;spacingRight=4;overflow=hidden;rotatable=0;points=[[0,0.5],[1,0.5]];portConstraint=eastwest;whiteSpace=wrap;html=1;" parent="b3Nxh0a8uUn3oDR11aNZ-173" vertex="1">
                    <mxGeometry y="26" width="140" height="26" as="geometry"/>
                </mxCell>
                <mxCell id="b3Nxh0a8uUn3oDR11aNZ-175" value="+ y: number" style="text;strokeColor=none;fillColor=none;align=left;verticalAlign=top;spacingLeft=4;spacingRight=4;overflow=hidden;rotatable=0;points=[[0,0.5],[1,0.5]];portConstraint=eastwest;whiteSpace=wrap;html=1;" parent="b3Nxh0a8uUn3oDR11aNZ-173" vertex="1">
                    <mxGeometry y="52" width="140" height="26" as="geometry"/>
                </mxCell>
                <mxCell id="b3Nxh0a8uUn3oDR11aNZ-176" value="+ z: number" style="text;strokeColor=none;fillColor=none;align=left;verticalAlign=top;spacingLeft=4;spacingRight=4;overflow=hidden;rotatable=0;points=[[0,0.5],[1,0.5]];portConstraint=eastwest;whiteSpace=wrap;html=1;" parent="b3Nxh0a8uUn3oDR11aNZ-173" vertex="1">
                    <mxGeometry y="78" width="140" height="26" as="geometry"/>
                </mxCell>
                <mxCell id="b3Nxh0a8uUn3oDR11aNZ-177" value="Rotation" style="swimlane;fontStyle=0;childLayout=stackLayout;horizontal=1;startSize=26;fillColor=none;horizontalStack=0;resizeParent=1;resizeParentMax=0;resizeLast=0;collapsible=1;marginBottom=0;whiteSpace=wrap;html=1;" parent="1" vertex="1">
                    <mxGeometry x="1420" y="111" width="140" height="104" as="geometry"/>
                </mxCell>
                <mxCell id="b3Nxh0a8uUn3oDR11aNZ-183" value="+ x: number" style="text;strokeColor=none;fillColor=none;align=left;verticalAlign=top;spacingLeft=4;spacingRight=4;overflow=hidden;rotatable=0;points=[[0,0.5],[1,0.5]];portConstraint=eastwest;whiteSpace=wrap;html=1;" parent="b3Nxh0a8uUn3oDR11aNZ-177" vertex="1">
                    <mxGeometry y="26" width="140" height="26" as="geometry"/>
                </mxCell>
                <mxCell id="b3Nxh0a8uUn3oDR11aNZ-184" value="+ y: number" style="text;strokeColor=none;fillColor=none;align=left;verticalAlign=top;spacingLeft=4;spacingRight=4;overflow=hidden;rotatable=0;points=[[0,0.5],[1,0.5]];portConstraint=eastwest;whiteSpace=wrap;html=1;" parent="b3Nxh0a8uUn3oDR11aNZ-177" vertex="1">
                    <mxGeometry y="52" width="140" height="26" as="geometry"/>
                </mxCell>
                <mxCell id="b3Nxh0a8uUn3oDR11aNZ-185" value="+ z: number" style="text;strokeColor=none;fillColor=none;align=left;verticalAlign=top;spacingLeft=4;spacingRight=4;overflow=hidden;rotatable=0;points=[[0,0.5],[1,0.5]];portConstraint=eastwest;whiteSpace=wrap;html=1;" parent="b3Nxh0a8uUn3oDR11aNZ-177" vertex="1">
                    <mxGeometry y="78" width="140" height="26" as="geometry"/>
                </mxCell>
                <mxCell id="b3Nxh0a8uUn3oDR11aNZ-181" style="edgeStyle=orthogonalEdgeStyle;rounded=0;orthogonalLoop=1;jettySize=auto;html=1;entryX=0.672;entryY=1.027;entryDx=0;entryDy=0;entryPerimeter=0;endArrow=diamondThin;endFill=1;" parent="1" source="b3Nxh0a8uUn3oDR11aNZ-175" target="b3Nxh0a8uUn3oDR11aNZ-154" edge="1">
                    <mxGeometry relative="1" as="geometry"/>
                </mxCell>
                <mxCell id="b3Nxh0a8uUn3oDR11aNZ-182" style="edgeStyle=orthogonalEdgeStyle;rounded=0;orthogonalLoop=1;jettySize=auto;html=1;endArrow=diamondThin;endFill=1;exitX=0;exitY=0.5;exitDx=0;exitDy=0;" parent="1" source="b3Nxh0a8uUn3oDR11aNZ-184" target="b3Nxh0a8uUn3oDR11aNZ-154" edge="1">
                    <mxGeometry relative="1" as="geometry">
                        <mxPoint x="1210" y="210" as="targetPoint"/>
                        <mxPoint x="1360" y="427" as="sourcePoint"/>
                    </mxGeometry>
                </mxCell>
                <mxCell id="8" value="" style="edgeStyle=none;html=1;dashed=1;dashPattern=8 8;" edge="1" parent="1" source="2" target="b3Nxh0a8uUn3oDR11aNZ-98">
                    <mxGeometry relative="1" as="geometry">
                        <Array as="points">
                            <mxPoint x="2380" y="560"/>
                            <mxPoint x="1460" y="580"/>
                        </Array>
                    </mxGeometry>
                </mxCell>
                <mxCell id="2" value="UpdateTimeFormatController" style="swimlane;fontStyle=1;align=center;verticalAlign=top;childLayout=stackLayout;horizontal=1;startSize=26;horizontalStack=0;resizeParent=1;resizeParentMax=0;resizeLast=0;collapsible=1;marginBottom=0;whiteSpace=wrap;html=1;" vertex="1" parent="1">
                    <mxGeometry x="2300" y="620" width="170" height="86" as="geometry"/>
                </mxCell>
                <mxCell id="3" value="+ field: type" style="text;strokeColor=none;fillColor=none;align=left;verticalAlign=top;spacingLeft=4;spacingRight=4;overflow=hidden;rotatable=0;points=[[0,0.5],[1,0.5]];portConstraint=eastwest;whiteSpace=wrap;html=1;" vertex="1" parent="2">
                    <mxGeometry y="26" width="170" height="26" as="geometry"/>
                </mxCell>
                <mxCell id="4" value="" style="line;strokeWidth=1;fillColor=none;align=left;verticalAlign=middle;spacingTop=-1;spacingLeft=3;spacingRight=3;rotatable=0;labelPosition=right;points=[];portConstraint=eastwest;strokeColor=inherit;" vertex="1" parent="2">
                    <mxGeometry y="52" width="170" height="8" as="geometry"/>
                </mxCell>
                <mxCell id="5" value="+ method(type): type" style="text;strokeColor=none;fillColor=none;align=left;verticalAlign=top;spacingLeft=4;spacingRight=4;overflow=hidden;rotatable=0;points=[[0,0.5],[1,0.5]];portConstraint=eastwest;whiteSpace=wrap;html=1;" vertex="1" parent="2">
                    <mxGeometry y="60" width="170" height="26" as="geometry"/>
                </mxCell>
            </root>
        </mxGraphModel>
    </diagram>
</mxfile>
